<mxfile host="app.diagrams.net" modified="2022-02-21T09:15:00.228Z" agent="5.0 (Macintosh; Intel Mac OS X 10_15_7) AppleWebKit/537.36 (KHTML, like Gecko) Chrome/98.0.4758.102 Safari/537.36" etag="ewW9M9e0f6bzneLaqIw8" version="16.6.1" type="github">
  <diagram id="zzds6Kp185NoCfkkMVd4" name="Page-1">
    <mxGraphModel dx="895" dy="521" grid="1" gridSize="10" guides="1" tooltips="1" connect="1" arrows="1" fold="1" page="1" pageScale="1" pageWidth="1800" pageHeight="275" math="0" shadow="0">
      <root>
        <mxCell id="0" />
        <mxCell id="1" parent="0" />
        <mxCell id="ixqmZI1KRuaAsa8ncv3C-2" value="client" style="ellipse;whiteSpace=wrap;html=1;fillColor=#f5f5f5;fontColor=#333333;strokeColor=#666666;" parent="1" vertex="1">
          <mxGeometry x="40" y="267.5" width="120" height="80" as="geometry" />
        </mxCell>
        <mxCell id="ixqmZI1KRuaAsa8ncv3C-3" value="server" style="ellipse;whiteSpace=wrap;html=1;fillColor=#f5f5f5;fontColor=#333333;strokeColor=#666666;" parent="1" vertex="1">
          <mxGeometry x="730" y="260" width="120" height="80" as="geometry" />
        </mxCell>
        <mxCell id="ixqmZI1KRuaAsa8ncv3C-4" value="" style="rounded=1;whiteSpace=wrap;html=1;fillColor=#f8cecc;strokeColor=#b85450;" parent="1" vertex="1">
          <mxGeometry x="190" y="240" width="110" height="135" as="geometry" />
        </mxCell>
        <mxCell id="G3217BQzLfLmHTe0aymr-1" value="send channel" style="rounded=1;whiteSpace=wrap;html=1;" vertex="1" parent="1">
          <mxGeometry x="200" y="250" width="90" height="50" as="geometry" />
        </mxCell>
        <mxCell id="G3217BQzLfLmHTe0aymr-2" value="recv channel" style="rounded=1;whiteSpace=wrap;html=1;" vertex="1" parent="1">
          <mxGeometry x="200" y="310" width="90" height="50" as="geometry" />
        </mxCell>
        <mxCell id="G3217BQzLfLmHTe0aymr-3" value="" style="rounded=1;whiteSpace=wrap;html=1;fillColor=#f8cecc;strokeColor=#b85450;" vertex="1" parent="1">
          <mxGeometry x="610" y="240" width="110" height="135" as="geometry" />
        </mxCell>
        <mxCell id="G3217BQzLfLmHTe0aymr-4" value="send channel" style="rounded=1;whiteSpace=wrap;html=1;" vertex="1" parent="1">
          <mxGeometry x="620" y="310" width="90" height="50" as="geometry" />
        </mxCell>
        <mxCell id="G3217BQzLfLmHTe0aymr-5" value="recv channel" style="rounded=1;whiteSpace=wrap;html=1;" vertex="1" parent="1">
          <mxGeometry x="620" y="250" width="90" height="50" as="geometry" />
        </mxCell>
        <mxCell id="G3217BQzLfLmHTe0aymr-6" value="" style="shape=flexArrow;endArrow=classic;html=1;rounded=0;fillColor=#f8cecc;strokeColor=#b85450;" edge="1" parent="1">
          <mxGeometry width="50" height="50" relative="1" as="geometry">
            <mxPoint x="320" y="280" as="sourcePoint" />
            <mxPoint x="600" y="280" as="targetPoint" />
          </mxGeometry>
        </mxCell>
        <mxCell id="G3217BQzLfLmHTe0aymr-7" value="" style="shape=flexArrow;endArrow=none;html=1;rounded=0;startArrow=block;endFill=0;fillColor=#f8cecc;strokeColor=#b85450;" edge="1" parent="1">
          <mxGeometry width="50" height="50" relative="1" as="geometry">
            <mxPoint x="320" y="334.7700000000001" as="sourcePoint" />
            <mxPoint x="590" y="335" as="targetPoint" />
          </mxGeometry>
        </mxCell>
        <mxCell id="G3217BQzLfLmHTe0aymr-8" value="&lt;pre style=&quot;font-family: &amp;#34;jetbrains mono&amp;#34; , monospace ; font-size: 9.8pt&quot;&gt;TCPConn&lt;/pre&gt;" style="text;html=1;strokeColor=none;fillColor=none;align=center;verticalAlign=middle;whiteSpace=wrap;rounded=0;" vertex="1" parent="1">
          <mxGeometry x="215" y="210" width="60" height="30" as="geometry" />
        </mxCell>
        <mxCell id="G3217BQzLfLmHTe0aymr-10" value="&lt;pre style=&quot;font-family: &amp;#34;jetbrains mono&amp;#34; , monospace ; font-size: 9.8pt&quot;&gt;TCPConn&lt;/pre&gt;" style="text;html=1;strokeColor=none;fillColor=none;align=center;verticalAlign=middle;whiteSpace=wrap;rounded=0;" vertex="1" parent="1">
          <mxGeometry x="635" y="210" width="60" height="30" as="geometry" />
        </mxCell>
        <mxCell id="G3217BQzLfLmHTe0aymr-12" value="&lt;font color=&quot;#ea6b66&quot;&gt;1110111011101111&lt;/font&gt;0101010101010...&lt;font color=&quot;#ea6b66&quot;&gt;1110111011101111&lt;/font&gt;0101010101010..." style="text;html=1;strokeColor=none;fillColor=none;align=center;verticalAlign=middle;whiteSpace=wrap;rounded=0;labelBackgroundColor=none;fontColor=#000000;" vertex="1" parent="1">
          <mxGeometry x="420" y="383" width="60" height="30" as="geometry" />
        </mxCell>
        <mxCell id="G3217BQzLfLmHTe0aymr-13" value="&lt;font color=&quot;#ea6b66&quot;&gt;2 byte&lt;br&gt;begin falg&lt;br&gt;&lt;/font&gt;" style="rounded=1;whiteSpace=wrap;html=1;labelBackgroundColor=none;fontColor=#000000;" vertex="1" parent="1">
          <mxGeometry x="170" y="450" width="120" height="60" as="geometry" />
        </mxCell>
        <mxCell id="G3217BQzLfLmHTe0aymr-14" value="4 byte&lt;br&gt;message length" style="rounded=1;whiteSpace=wrap;html=1;labelBackgroundColor=none;fontColor=#000000;" vertex="1" parent="1">
          <mxGeometry x="290" y="450" width="120" height="60" as="geometry" />
        </mxCell>
        <mxCell id="G3217BQzLfLmHTe0aymr-15" value="1 byte&lt;br&gt;other flag（compress）" style="rounded=1;whiteSpace=wrap;html=1;labelBackgroundColor=none;fontColor=#000000;" vertex="1" parent="1">
          <mxGeometry x="410" y="450" width="120" height="60" as="geometry" />
        </mxCell>
        <mxCell id="G3217BQzLfLmHTe0aymr-16" value="2 byte&lt;br&gt;protocol number" style="rounded=1;whiteSpace=wrap;html=1;labelBackgroundColor=none;fontColor=#000000;" vertex="1" parent="1">
          <mxGeometry x="530" y="450" width="120" height="60" as="geometry" />
        </mxCell>
        <mxCell id="G3217BQzLfLmHTe0aymr-17" value="message length&lt;br&gt;(serialization length)" style="rounded=1;whiteSpace=wrap;html=1;labelBackgroundColor=none;fontColor=#000000;" vertex="1" parent="1">
          <mxGeometry x="650" y="450" width="120" height="60" as="geometry" />
        </mxCell>
        <mxCell id="G3217BQzLfLmHTe0aymr-18" value="" style="shape=flexArrow;endArrow=none;html=1;rounded=0;fontColor=#000000;startArrow=block;endFill=0;strokeColor=#b85450;fillColor=#f8cecc;" edge="1" parent="1">
          <mxGeometry width="50" height="50" relative="1" as="geometry">
            <mxPoint x="220" y="433" as="sourcePoint" />
            <mxPoint x="270" y="413" as="targetPoint" />
          </mxGeometry>
        </mxCell>
      </root>
    </mxGraphModel>
  </diagram>
</mxfile>
